<?xml version="1.0" encoding="utf-8"?>
<svg xmlns="http://www.w3.org/2000/svg" xmlns:xlink="http://www.w3.org/1999/xlink" version= "1.1" width="2560px" height="1600px" viewBox="0 0 2560 1600">
<rect x="0" y="0" width="2560" height="1600" fill="rgb(255,255,255)"/>
<g id="layer1">
<g style="fill:rgb(45,204,112); fill-opacity:1.0; stroke-linejoin: miter">
</g>
<g style="fill:rgb(45,204,112); fill-opacity:1.0; stroke-linejoin: miter">
<path d="M883.4408,315.49997Q994.16125,317.54544,1072.1108,393.8111Q1148.7158,473.24506,1149.9592,582.6694Q1147.7008,692.73193,1072.1265,770.3044Q994.126,846.5871,883.50037,848.63055Q772.77637,846.6494,694.7782,770.4201Q618.1267,691.0202,616.82935,581.5954Q619.03345,471.53384,694.5618,393.92688Q772.5152,317.6074,883.1365,315.50015 M883.4517,253.48317Q749.4742,255.05725,651.30237,349.48386Q557.0341,446.3421,554.8122,581.8783Q556.8316,717.2446,650.9754,814.32025Q746.30286,907.77234,883.0346,910.6472Q1017.01654,909.1991,1115.2847,814.8477Q1209.6458,718.0595,1211.9763,582.5208Q1210.0653,447.15527,1116.0142,350.01157Q1020.7847,256.4872,884.0564,253.48373"/>
</g>
<g style="fill:rgb(45,204,112); fill-opacity:1.0; stroke-linejoin: miter">
<path d="M1125.3394,764.1823Q1096.1503,764.9591,1081.0583,790.93604Q1068.2642,817.52356,1084.12,842.4965Q1086.9705,846.5382,1089.6381,849.1867L1326.6563,1088.6306Q1341.41,1101.8578,1360.203,1102.087Q1389.395,1101.6586,1404.7986,1075.8452Q1418.0133,1048.3563,1401.9583,1023.7046Q1399.1,1019.6667,1396.4265,1017.02185L1159.4059,777.581Q1144.6279,764.38025,1125.8353,764.18475"/>
</g>
</g>
</svg>